<?xml version="1.0"?>
<svg xmlns="http://www.w3.org/2000/svg" id="Outline" viewBox="0 0 512 512" width="512" height="512"><path d="M488,128H456a8,8,0,0,0-8,8,8,8,0,0,1-16,0,8,8,0,0,0-8-8H392a8,8,0,0,0-8,8,8,8,0,0,1-16,0,8,8,0,0,0-8-8H328a8,8,0,0,0-8,8,8,8,0,1,1-8-8,8,8,0,0,0,8-8V88a8,8,0,0,0-8-8,8,8,0,0,1,0-16,8,8,0,0,0,8-8V24a8,8,0,0,0-8-8H280a8,8,0,0,0-8,8,8,8,0,0,1-16,0,8,8,0,0,0-8-8H216a8,8,0,0,0-8,8,8,8,0,0,1-16,0,8,8,0,0,0-8-8H152a8,8,0,0,0-8,8,8,8,0,0,1-16,0,8,8,0,0,0-8-8H88a8,8,0,0,0-8,8,8,8,0,0,1-16,0,8,8,0,0,0-8-8H24a8,8,0,0,0-8,8V56a8,8,0,0,0,8,8,8,8,0,0,1,0,16,8,8,0,0,0-8,8v32a8,8,0,0,0,8,8,8,8,0,0,1,0,16,8,8,0,0,0-8,8v32a8,8,0,0,0,8,8,8,8,0,0,1,0,16,8,8,0,0,0-8,8v32a8,8,0,0,0,8,8,8,8,0,0,1,0,16,8,8,0,0,0-8,8v32a8,8,0,0,0,8,8,8,8,0,0,1,0,16,8,8,0,0,0-8,8v32a8,8,0,0,0,8,8H56a8,8,0,0,0,8-8,8,8,0,0,1,16,0,8,8,0,0,0,8,8h32a8,8,0,0,0,8-8,8,8,0,0,1,16,0,8,8,0,0,0,8,8h32a8,8,0,0,0,8-8,8,8,0,0,1,6-7.753l-.141-.546A7.979,7.979,0,0,0,200,368a8,8,0,0,1,0,16,8,8,0,0,0-8,8v32a8,8,0,0,0,8,8,8,8,0,0,1,0,16,8,8,0,0,0-8,8v32a8,8,0,0,0,8,8h32a8,8,0,0,0,8-8,8,8,0,0,1,16,0,8,8,0,0,0,8,8h32a8,8,0,0,0,8-8,8,8,0,0,1,16,0,8,8,0,0,0,8,8h32a8,8,0,0,0,8-8,8,8,0,0,1,16,0,8,8,0,0,0,8,8h32a8,8,0,0,0,8-8,8,8,0,0,1,16,0,8,8,0,0,0,8,8h32a8,8,0,0,0,8-8V456a8,8,0,0,0-8-8,8,8,0,0,1,0-16,8,8,0,0,0,8-8V392a8,8,0,0,0-8-8,8,8,0,0,1,0-16,8,8,0,0,0,8-8V328a8,8,0,0,0-8-8,8,8,0,0,1,0-16,8,8,0,0,0,8-8V264a8,8,0,0,0-8-8,8,8,0,0,1,0-16,8,8,0,0,0,8-8V200a8,8,0,0,0-8-8,8,8,0,0,1,0-16,8,8,0,0,0,8-8V136A8,8,0,0,0,488,128ZM177.368,368H158.629a24,24,0,0,0-45.258,0H94.629a24,24,0,0,0-45.258,0H32V350.629a24,24,0,0,0,0-45.258V286.629a24,24,0,0,0,0-45.258V222.629a24,24,0,0,0,0-45.258V158.629a24,24,0,0,0,0-45.258V94.629a24,24,0,0,0,0-45.258V32H49.371a24,24,0,0,0,45.258,0h18.742a24,24,0,0,0,45.258,0h18.742a24,24,0,0,0,45.258,0h18.742a24,24,0,0,0,45.258,0H304V49.371a24,24,0,0,0,0,45.258v18.742A24.109,24.109,0,0,0,289.387,128H272V72a8,8,0,0,0-8-8H72a8,8,0,0,0-8,8V328a8,8,0,0,0,8,8H192v17.375A23.994,23.994,0,0,0,177.368,368ZM200,320H80V80H256v56a8,8,0,0,1-16,0,8,8,0,0,0-8-8H200a8,8,0,0,0-8,8v8.82a40.058,40.058,0,0,0-24,15.205A39.988,39.988,0,0,0,96,184c0,45.026,66.366,70.431,69.191,71.491a8.005,8.005,0,0,0,5.618,0,174.553,174.553,0,0,0,30.035-15.445A8,8,0,0,1,200,256a8,8,0,0,0-8,8v32a8,8,0,0,0,8,8,8,8,0,0,1,0,16Zm0-128a8,8,0,0,0-8,8v26.706a166.057,166.057,0,0,1-24.038,12.675C150.016,231.95,112,210.67,112,184a24,24,0,0,1,48,0,8,8,0,0,0,16,0,24.038,24.038,0,0,1,16-22.624V168a8,8,0,0,0,8,8,8,8,0,0,1,0,16Zm280-30.629a24,24,0,0,0,0,45.258v18.742a24,24,0,0,0,0,45.258v18.742a24,24,0,0,0,0,45.258v18.742a24,24,0,0,0,0,45.258v18.742a24,24,0,0,0,0,45.258V480H462.629a24,24,0,0,0-45.258,0H398.629a24,24,0,0,0-45.258,0H334.629a24,24,0,0,0-45.258,0H270.629a24,24,0,0,0-45.258,0H208V462.629a24,24,0,0,0,0-45.258V398.629a24,24,0,0,0,0-45.258V334.629a24,24,0,0,0,0-45.258V270.629a24,24,0,0,0,0-45.258V206.629a24,24,0,0,0,0-45.258V144h17.371a24,24,0,0,0,45.258,0h18.742a24,24,0,0,0,45.258,0h18.742a24,24,0,0,0,45.258,0h18.742a24,24,0,0,0,45.258,0H480Z"/><path d="M440,176H248a8,8,0,0,0-8,8V440a8,8,0,0,0,8,8H440a8,8,0,0,0,8-8V184A8,8,0,0,0,440,176Zm-8,16V358.606l-42.794-36.68a8,8,0,0,0-10.665.225l-56.418,52.658-36.466-36.466a8,8,0,0,0-11.314,0L256,356.686V192ZM256,379.313l24-24,30.419,30.42L260.847,432H256ZM284.3,432l99.931-93.269L432,379.679V432Z"/><path d="M368,288a32,32,0,1,0-32-32A32.036,32.036,0,0,0,368,288Zm0-48a16,16,0,1,1-16,16A16.019,16.019,0,0,1,368,240Z"/></svg>
